# xmcd
#
# Track frame offsets: 
#        150
#        12653
#        33957
#        53629
#        79247
#        97410
#        118890
#        135443
#        153916
#        172426
#        184363
#        207988
#        219960
#
# Disc length: 3141 seconds
#
# Revision: 0
# Processed by: cddbd v1.5.2PL0 Copyright (c) Steve Scherf et al.
# Submitted via: ExactAudioCopy v1.0b4
#
DISCID=bf0c430d
DTITLE=Monster Mike Welch - Just Like Us
DYEAR=2007
DGENRE=Blues
TTITLE0=She Makes Time
TTITLE1=Please
TTITLE2=My Baby Loves Me
TTITLE3=Don't Expect Me to Cry
TTITLE4=Keep on Walking
TTITLE5=I'm Gonna Move to Another Country
TTITLE6=Sticky Whisket
TTITLE7=A Perfect World
TTITLE8=Now That You're Gone
TTITLE9=I'm Not a Stupid Man
TTITLE10=Love That Burns
TTITLE11=Move Along
TTITLE12=I Got a Strange Feeling
EXTD=
EXTT0=
EXTT1=
EXTT2=
EXTT3=
EXTT4=
EXTT5=
EXTT6=
EXTT7=
EXTT8=
EXTT9=
EXTT10=
EXTT11=
EXTT12=
PLAYORDER=
